<?xml version="1.0" standalone="no"?>
<!DOCTYPE svg PUBLIC "-//W3C//DTD SVG 20010904//EN"
 "http://www.w3.org/TR/2001/REC-SVG-20010904/DTD/svg10.dtd">
<svg version="1.0" xmlns="http://www.w3.org/2000/svg"
 width="600.000000pt" height="600.000000pt" viewBox="0 0 600.000000 600.000000"
 preserveAspectRatio="xMidYMid meet">
<metadata>
Created by potrace 1.14, written by Peter Selinger 2001-2017
</metadata>
<g transform="translate(0.000000,600.000000) scale(0.100000,-0.100000)"
fill="#000000" stroke="none">
<path d="M0 3000 l0 -3000 3000 0 3000 0 0 3000 0 3000 -3000 0 -3000 0 0
-3000z m821 183 c54 -32 30 -65 -27 -38 -52 24 -107 12 -157 -35 -36 -33 -41
-43 -45 -92 -6 -74 23 -129 83 -158 53 -26 88 -25 137 2 33 19 41 20 48 8 20
-32 -46 -70 -120 -70 -208 0 -276 279 -91 377 54 28 130 31 172 6z m296 0
c111 -52 133 -251 39 -342 -29 -28 -45 -35 -88 -39 -44 -3 -59 0 -88 20 -72
49 -103 149 -76 241 18 59 39 87 87 116 41 25 79 27 126 4z m223 7 c8 1 43 3
77 4 53 1 67 -3 105 -29 117 -83 119 -237 5 -329 -38 -30 -42 -31 -140 -31
l-102 0 -3 185 c-1 101 0 191 3 198 3 9 12 11 23 7 9 -4 24 -6 32 -5z m650 -5
c24 -29 0 -35 -136 -35 l-134 0 0 -52 0 -53 103 3 c83 3 106 0 116 -12 24 -29
2 -36 -110 -36 l-109 0 0 -75 0 -75 129 0 c104 0 131 -3 141 -15 25 -30 -3
-36 -161 -33 l-154 3 -3 184 c-2 127 1 188 9 197 17 21 292 20 309 -1z m256
-146 c23 -85 44 -147 47 -139 3 8 15 60 27 115 36 166 39 177 58 173 12 -2 25
-40 53 -153 21 -83 40 -143 43 -135 3 8 22 76 42 150 20 74 40 139 45 145 6 6
14 4 23 -5 12 -13 7 -40 -36 -190 -28 -96 -55 -181 -62 -188 -26 -27 -43 -1
-76 120 l-33 121 -29 -114 c-50 -195 -67 -188 -137 61 -37 129 -47 178 -39
188 6 7 16 11 22 9 6 -2 29 -73 52 -158z m449 -39 c0 -188 -1 -195 -20 -195
-19 0 -20 8 -23 185 -1 101 0 190 3 198 3 7 13 12 22 10 16 -3 18 -20 18 -198z
m350 175 c0 -18 -8 -20 -67 -23 l-68 -3 0 -175 c0 -162 -1 -175 -17 -172 -16
3 -18 21 -21 176 l-2 172 -60 0 c-60 0 -76 9 -66 36 5 12 30 14 153 12 140 -3
148 -4 148 -23z m95 -55 l5 -75 113 0 112 0 0 72 c0 74 6 88 34 77 14 -6 16
-29 14 -198 -3 -183 -4 -191 -23 -191 -18 0 -20 8 -23 98 l-3 97 -114 0 -114
0 -3 -97 c-3 -90 -5 -98 -23 -98 -19 0 -20 8 -23 185 -1 101 0 190 3 198 3 7
13 12 22 10 15 -3 19 -17 23 -78z m552 -89 l42 -152 32 140 c37 166 39 171 58
171 10 0 25 -43 52 -156 l37 -157 42 152 c23 84 46 156 51 161 5 5 15 5 23 0
12 -7 5 -40 -39 -195 -70 -244 -86 -252 -135 -66 -16 63 -32 106 -36 98 -4 -7
-19 -57 -32 -111 -44 -172 -63 -161 -128 70 -27 93 -48 177 -49 186 0 18 20
30 33 18 4 -3 26 -75 49 -159z m615 149 c18 -10 45 -38 60 -61 25 -38 28 -52
28 -124 0 -72 -3 -86 -27 -123 -37 -55 -78 -76 -138 -70 -86 9 -142 73 -148
173 -5 73 9 123 46 167 48 57 122 73 179 38z m200 9 c8 -8 22 -8 49 0 118 33
214 -26 214 -130 0 -24 -9 -41 -39 -69 l-38 -37 43 -59 c44 -60 55 -94 30 -94
-17 0 -51 38 -92 104 l-29 46 -67 0 -68 0 0 -70 c0 -54 -4 -72 -15 -77 -9 -3
-19 -2 -23 1 -8 8 -4 374 4 387 7 12 18 11 31 -2z m381 -167 l2 -171 98 -3
c89 -3 97 -5 97 -23 0 -19 -7 -20 -120 -20 l-120 0 -3 189 c-2 190 1 213 33
203 6 -2 11 -72 13 -175z m279 167 c8 -8 17 -8 31 0 35 19 105 13 153 -12 145
-77 144 -283 -3 -358 -32 -16 -55 -19 -126 -17 l-87 3 -3 185 c-1 101 0 190 2
197 6 16 18 17 33 2z"/>
<path d="M1001 3134 c-30 -22 -61 -89 -61 -137 0 -68 43 -135 97 -151 12 -4
38 0 58 8 63 27 95 139 61 220 -28 67 -103 96 -155 60z"/>
<path d="M1358 3149 l-28 -11 0 -133 c0 -127 1 -135 22 -149 30 -21 74 -20
124 3 108 49 119 209 19 271 -39 24 -102 33 -137 19z"/>
<path d="M4184 3132 c-46 -37 -71 -119 -55 -180 32 -116 137 -144 198 -53 44
65 22 210 -36 241 -30 15 -83 12 -107 -8z"/>
<path d="M4543 3138 c-33 -11 -33 -12 -33 -74 l0 -64 79 0 c64 0 83 4 105 21
33 26 36 77 6 104 -24 22 -110 29 -157 13z"/>
<path d="M5208 3148 l-28 -10 0 -137 0 -138 25 -11 c39 -18 76 -15 125 11 55
28 80 73 80 144 0 47 -4 58 -36 93 -48 53 -107 70 -166 48z"/>
</g>
</svg>
